<?xml version="1.0" encoding="utf-8"?>
<!-- Generator: Adobe Illustrator 17.0.0, SVG Export Plug-In . SVG Version: 6.00 Build 0)  -->
<!DOCTYPE svg PUBLIC "-//W3C//DTD SVG 1.1//EN" "http://www.w3.org/Graphics/SVG/1.1/DTD/svg11.dtd">
<svg version="1.1" id="Layer_1" xmlns="http://www.w3.org/2000/svg" xmlns:xlink="http://www.w3.org/1999/xlink" x="0px" y="0px"
	 width="267.037px" height="100.148px" viewBox="0 0 267.037 100.148" enable-background="new 0 0 267.037 100.148"
	 xml:space="preserve">
<g>
	<path fill="#213163" d="M163.286,13.67h-2.431c0,0,0.676,10.868,0.473,17.077c-0.02,0.592-0.039,1.169-0.059,1.737
		c-0.456-2.489-1.614-5.469-4.504-6.26c-4.185-1.282-7.426-1.553-7.897-8.437c-0.04,0.034-0.071,0.073-0.107,0.109
		c0.112-2.552,0.215-4.226,0.215-4.226h-2.43c0,0,0.675,10.868,0.473,17.077c-0.019,0.592-0.039,1.169-0.058,1.737
		c-0.458-2.49-1.614-5.469-4.505-6.26c-4.185-1.282-7.426-1.553-7.899-8.437c-0.04,0.034-0.07,0.073-0.106,0.109
		c0.11-2.552,0.215-4.226,0.215-4.226h-2.429c0,0,0.105,1.7,0.22,4.135c-0.006-0.006-0.011-0.012-0.019-0.018
		c-0.472,6.884-3.711,7.155-7.896,8.437c-3.107,0.848-4.211,4.225-4.597,6.805c-0.052-1.902-0.081-3.92-0.061-5.859
		c0.067-6.953,0.472-13.5,0.472-13.5h-2.43c0,0,0.106,1.7,0.22,4.135c-0.006-0.006-0.01-0.012-0.015-0.018
		c-0.475,6.884-3.716,7.155-7.9,8.437c-2.837,0.775-4.004,3.66-4.478,6.123c-0.04-1.698-0.061-3.467-0.045-5.177
		c0.068-6.953,0.474-13.5,0.474-13.5h-2.431c0,0,0.674,10.868,0.472,17.077c-0.202,6.21-0.404,11.34-0.404,11.34h2.363
		c0,0-0.193-2.843-0.333-6.616c1.186-8.06,4.651-7.607,8.23-8.842c3.396-1.17,4.099-4.218,4.227-5.005
		c0.109,3.097,0.178,6.519,0.093,9.123c-0.202,6.21-0.404,11.34-0.404,11.34h2.361c0,0-0.166-2.46-0.302-5.839
		c1.075-8.869,4.644-8.347,8.336-9.619c3.395-1.17,4.098-4.218,4.225-5.005c0.109,3.097,0.178,6.519,0.094,9.123
		c-0.203,6.21-0.405,11.34-0.405,11.34h2.362c0,0-0.539-7.964-0.472-14.917c0.02-2.025,0.068-4.015,0.126-5.819
		c0.022,0.049,0.034,0.081,0.034,0.081s0.338,3.849,4.253,5.197c3.596,1.24,7.075,0.779,8.247,8.954
		c-0.135,3.824-0.242,6.504-0.242,6.504h2.364c0,0-0.54-7.964-0.472-14.917c0.019-2.025,0.069-4.015,0.127-5.82
		c0.02,0.05,0.035,0.082,0.035,0.082s0.337,3.849,4.252,5.197c3.595,1.24,7.073,0.779,8.245,8.954
		c-0.134,3.824-0.239,6.504-0.239,6.504h2.362c0,0-0.54-7.964-0.472-14.917C162.88,20.217,163.286,13.67,163.286,13.67"/>
	<path fill="#213163" d="M61.685,65.958c-0.348,0.852-2.022,1.676-3.432,1.676l-5.454-0.026c-0.69,0-0.904-0.294-0.904-0.587V46.803
		h-1.89v21.126h11.68c0-0.615,0.265-1.705,0.372-2.291h-0.24L61.685,65.958z"/>
	<path fill="#213163" d="M87.63,65.564c-0.137,0.686-0.906,1.354-1.601,1.354c-0.741,0-1.454-0.64-1.454-1.308v-8.032
		c0-2.552-1.977-4.39-3.998-4.39c-2.763,0-5.48,2.789-5.48,3.997c0,0.558,0.403,1.116,0.824,1.116c0.485,0,0.933-0.512,0.933-0.805
		c0-0.339-0.531-1.061-0.531-1.354c0-0.851,2.022-2.79,4.099-2.79c1.271,0,2.551,1.51,2.551,3.641v3.22
		c-5.716,1.033-8.379,2.451-8.379,5.324c0,1.326,1.62,2.652,3.275,2.652c1.116,0,3.294-1.006,5.077-2.579
		c0,1.226,1.226,2.451,2.451,2.451c1.007,0,2.205-1.198,2.415-2.396L87.63,65.564z M82.946,65.508
		c-1.335,1.116-3.192,1.83-4.281,1.83c-1.281,0-2.533-0.979-2.533-1.995c0-2.872,2.158-4.198,6.787-5.022h0.027V65.508z"/>
	<path fill="#213163" d="M113.038,53.772c-0.906,0-2.049,0.824-2.552,1.756c-0.934-1.326-2.58-2.314-4.254-2.314
		c-2.552,0-5.086,2.287-5.086,4.601c0,2.104,2.022,4.18,4.29,4.601c-2.579,0.193-4.903,1.308-4.903,2.452
		c0,1.253,1.363,2.442,2.9,2.708c-1.619,0.512-3.083,1.838-3.083,2.881c0,1.829,3.037,3.613,6.148,3.613
		c3.082,0,6.119-2.049,6.119-4.125c0-1.967-2.049-3.906-5.214-3.906h-3.275c-1.327,0-2.662-0.823-2.662-1.647
		c0-0.96,2.37-1.893,4.766-1.893c2.552,0,5.05-2.315,5.05-4.684c0-0.74-0.266-1.491-0.687-2.15c0.348-0.484,0.951-0.85,1.491-0.85
		c0.312,0,0.979,0.658,1.299,0.658c0.348,0,0.668-0.347,0.668-0.686V54.76C114.053,54.257,113.55,53.772,113.038,53.772
		 M104.073,67.631h3.192c2.452,0,4.044,1.335,4.044,2.716c0,1.839-2.369,3.623-4.757,3.623c-2.451,0-4.866-1.949-4.866-3.915
		c0-0.934,0.897-2.022,1.939-2.479l-0.028,0.027C103.753,67.631,103.918,67.631,104.073,67.631 M106.232,62.389
		c-1.756,0-3.485-2.259-3.485-4.574c0-2.259,1.729-4.491,3.485-4.491c1.729,0,3.431,2.232,3.431,4.491
		C109.663,60.13,107.961,62.389,106.232,62.389"/>
	<path fill="#213163" d="M133.827,53.187c-3.641,0-7.235,3.722-7.235,7.501c0,3.778,3.594,7.5,7.235,7.5
		c3.641,0,7.208-3.722,7.208-7.5C141.035,56.909,137.468,53.187,133.827,53.187 M133.827,68.033c-2.763,0-5.479-3.641-5.479-7.345
		c0-3.696,2.716-7.337,5.479-7.337c2.771,0,5.452,3.641,5.452,7.337C139.279,64.392,136.598,68.033,133.827,68.033"/>
	<path fill="#213163" d="M160.809,53.187c-3.649,0-7.235,3.722-7.235,7.501c0,3.778,3.586,7.5,7.235,7.5
		c3.641,0,7.208-3.722,7.208-7.5C168.017,56.909,164.45,53.187,160.809,53.187 M160.809,68.033c-2.771,0-5.488-3.641-5.488-7.345
		c0-3.696,2.717-7.337,5.488-7.337c2.763,0,5.452,3.641,5.452,7.337C166.261,64.392,163.572,68.033,160.809,68.033"/>
	<path fill="#213163" d="M187.338,53.189c-1.011,0-3.38,1.783-4.788,3.591v-3.326h-0.798c-0.293,0.08-0.905,0.24-1.197,0.319v0.134
		h0.079c0.159,0.054,0.319,0.664,0.319,1.278v12.741h1.597V57.047c1.196-1.544,3.326-3.033,4.283-3.033
		c1.569,0,2.845,2.048,2.845,4.149v9.763h1.598v-9.763C191.276,55.663,189.52,53.189,187.338,53.189"/>
	<path fill="#213163" d="M216.85,65.564c-0.138,0.686-0.907,1.354-1.602,1.354c-0.74,0-1.463-0.64-1.463-1.308v-8.032
		c0-2.552-1.967-4.39-3.988-4.39c-2.773,0-5.48,2.789-5.48,3.997c0,0.558,0.393,1.116,0.824,1.116c0.475,0,0.932-0.512,0.932-0.805
		c0-0.339-0.53-1.061-0.53-1.354c0-0.851,2.021-2.79,4.098-2.79c1.271,0,2.552,1.51,2.552,3.641v3.22
		c-5.726,1.033-8.38,2.451-8.38,5.324c0,1.326,1.62,2.652,3.267,2.652c1.115,0,3.302-1.006,5.086-2.579
		c0,1.226,1.226,2.451,2.442,2.451c1.015,0,2.213-1.198,2.424-2.396L216.85,65.564z M212.166,65.508
		c-1.327,1.116-3.192,1.83-4.281,1.83c-1.281,0-2.534-0.979-2.534-1.995c0-2.872,2.159-4.198,6.787-5.022h0.028V65.508z"/>
	<polygon fill="#213163" points="68.974,86.963 68.974,81.869 66.971,81.869 66.971,80.815 72.169,80.815 72.169,81.869 
		70.116,81.869 70.116,86.963 	"/>
	<path fill="#213163" d="M73.829,86.963v-6.5h1.08v2.96l-0.271,0.088c0.064-0.222,0.192-0.428,0.381-0.619
		c0.192-0.19,0.423-0.347,0.699-0.47c0.275-0.123,0.564-0.185,0.87-0.185c0.398,0,0.731,0.08,1.001,0.238
		c0.269,0.158,0.469,0.38,0.602,0.667c0.131,0.287,0.198,0.63,0.198,1.028v2.793h-1.081V84.31c0-0.245-0.043-0.452-0.131-0.619
		c-0.089-0.166-0.216-0.294-0.382-0.382c-0.168-0.087-0.362-0.129-0.585-0.123c-0.189,0-0.36,0.033-0.519,0.096
		c-0.157,0.066-0.295,0.152-0.411,0.26c-0.119,0.108-0.207,0.23-0.269,0.365c-0.061,0.135-0.093,0.275-0.093,0.421v2.635h-0.544
		h-0.338H73.829z"/>
	<path fill="#213163" d="M82.858,87.05c-0.539,0-1.016-0.102-1.431-0.307c-0.416-0.205-0.739-0.485-0.97-0.839
		c-0.232-0.354-0.348-0.759-0.348-1.216c0-0.375,0.068-0.711,0.203-1.011c0.135-0.298,0.321-0.556,0.558-0.772
		c0.235-0.217,0.516-0.384,0.838-0.501c0.322-0.117,0.671-0.176,1.046-0.176c0.338,0,0.658,0.057,0.953,0.172
		c0.296,0.114,0.553,0.272,0.773,0.474c0.219,0.202,0.389,0.442,0.509,0.72s0.177,0.584,0.171,0.918l-0.009,0.413h-4.242
		l-0.202-0.756h3.539l-0.14,0.132v-0.193c-0.022-0.182-0.1-0.341-0.228-0.479c-0.129-0.137-0.292-0.247-0.487-0.329
		c-0.197-0.082-0.408-0.123-0.637-0.123c-0.322,0-0.603,0.052-0.843,0.154c-0.24,0.102-0.426,0.259-0.56,0.469
		c-0.13,0.211-0.196,0.481-0.196,0.809c0,0.298,0.078,0.557,0.233,0.777c0.155,0.219,0.372,0.391,0.651,0.514
		c0.277,0.123,0.6,0.184,0.969,0.184c0.317,0,0.588-0.042,0.818-0.127c0.227-0.085,0.437-0.2,0.631-0.347l0.509,0.746
		c-0.171,0.135-0.369,0.255-0.596,0.36c-0.229,0.106-0.472,0.188-0.73,0.247C83.382,87.021,83.122,87.05,82.858,87.05"/>
	<polygon fill="#213163" points="90.28,86.963 90.28,80.815 91.423,80.815 91.423,85.909 94.751,85.909 94.751,86.963 	"/>
	<path fill="#213163" d="M98.738,87.05c-0.538,0-1.017-0.102-1.431-0.307c-0.417-0.205-0.74-0.485-0.97-0.839
		c-0.232-0.354-0.348-0.759-0.348-1.216c0-0.375,0.067-0.711,0.203-1.011c0.133-0.298,0.32-0.556,0.557-0.772
		c0.237-0.217,0.516-0.384,0.84-0.501c0.321-0.117,0.669-0.176,1.044-0.176c0.34,0,0.658,0.057,0.953,0.172
		c0.296,0.114,0.553,0.272,0.773,0.474c0.219,0.202,0.39,0.442,0.509,0.72c0.121,0.278,0.177,0.584,0.171,0.918l-0.009,0.413h-4.241
		l-0.203-0.756h3.54l-0.141,0.132v-0.193c-0.022-0.182-0.1-0.341-0.226-0.479c-0.131-0.137-0.293-0.247-0.489-0.329
		c-0.195-0.082-0.409-0.123-0.637-0.123c-0.322,0-0.603,0.052-0.843,0.154c-0.239,0.102-0.426,0.259-0.558,0.469
		c-0.132,0.211-0.197,0.481-0.197,0.809c0,0.298,0.077,0.557,0.232,0.777c0.157,0.219,0.372,0.391,0.65,0.514
		s0.601,0.184,0.97,0.184c0.318,0,0.59-0.042,0.818-0.127c0.227-0.085,0.438-0.2,0.633-0.347l0.509,0.746
		c-0.171,0.135-0.371,0.255-0.598,0.36c-0.228,0.106-0.471,0.188-0.729,0.247C99.262,87.021,99.002,87.05,98.738,87.05"/>
	<path fill="#213163" d="M105.089,88.982c-0.428,0-0.824-0.053-1.186-0.162c-0.363-0.109-0.655-0.245-0.879-0.408l0.378-0.817
		c0.123,0.075,0.269,0.147,0.435,0.215c0.168,0.067,0.35,0.123,0.553,0.167c0.202,0.044,0.414,0.066,0.637,0.066
		c0.316,0,0.587-0.055,0.812-0.163s0.399-0.273,0.524-0.492c0.121-0.22,0.184-0.487,0.184-0.803v-0.712l0.158,0.062
		c-0.041,0.176-0.157,0.345-0.348,0.509c-0.189,0.164-0.426,0.299-0.707,0.404c-0.281,0.106-0.579,0.158-0.895,0.158
		c-0.469,0-0.883-0.102-1.243-0.307c-0.36-0.205-0.644-0.485-0.851-0.839c-0.209-0.354-0.314-0.762-0.314-1.225
		c0-0.462,0.107-0.874,0.317-1.234c0.211-0.36,0.501-0.644,0.87-0.852s0.79-0.312,1.264-0.312c0.16,0,0.328,0.019,0.506,0.057
		c0.178,0.039,0.352,0.092,0.517,0.162c0.168,0.07,0.321,0.153,0.462,0.247c0.14,0.093,0.255,0.194,0.344,0.302
		c0.087,0.109,0.138,0.219,0.156,0.33l-0.228,0.07l0.018-1.071h1.053v4.171c0,0.41-0.063,0.767-0.189,1.072
		c-0.124,0.304-0.303,0.562-0.53,0.773c-0.229,0.211-0.498,0.369-0.808,0.474C105.789,88.93,105.452,88.982,105.089,88.982
		 M105.027,86.084c0.311,0,0.583-0.062,0.817-0.184c0.235-0.123,0.414-0.294,0.544-0.51c0.128-0.217,0.194-0.466,0.194-0.746
		c0-0.288-0.066-0.541-0.199-0.76c-0.13-0.22-0.313-0.391-0.544-0.514c-0.231-0.123-0.501-0.184-0.812-0.184
		c-0.31,0-0.585,0.063-0.821,0.189c-0.238,0.126-0.424,0.298-0.564,0.518c-0.136,0.219-0.205,0.469-0.205,0.751
		c0,0.274,0.069,0.522,0.205,0.742c0.14,0.219,0.326,0.391,0.564,0.514C104.442,86.022,104.717,86.084,105.027,86.084"/>
	<path fill="#213163" d="M111.633,87.051c-0.452,0-0.853-0.104-1.2-0.312s-0.622-0.493-0.825-0.856
		c-0.204-0.363-0.303-0.779-0.303-1.248c0-0.461,0.102-0.875,0.307-1.238c0.205-0.363,0.488-0.647,0.847-0.852
		c0.36-0.204,0.773-0.307,1.234-0.307c0.276,0,0.529,0.035,0.761,0.105c0.23,0.07,0.433,0.168,0.605,0.294
		c0.173,0.126,0.311,0.264,0.419,0.413c0.104,0.149,0.168,0.307,0.191,0.47l-0.254-0.026v-1.159h1.079v4.628h-1.088v-1.177
		l0.237,0.009c-0.029,0.146-0.102,0.294-0.214,0.443c-0.114,0.15-0.264,0.285-0.449,0.404c-0.183,0.12-0.39,0.219-0.619,0.295
		C112.134,87.013,111.891,87.051,111.633,87.051 M111.922,86.092c0.299,0,0.563-0.062,0.794-0.184
		c0.231-0.123,0.411-0.295,0.542-0.514c0.127-0.219,0.192-0.473,0.192-0.76c0-0.275-0.065-0.521-0.192-0.738
		c-0.131-0.216-0.311-0.387-0.542-0.513c-0.231-0.126-0.495-0.189-0.794-0.189c-0.304,0-0.57,0.063-0.8,0.189
		c-0.228,0.126-0.405,0.297-0.529,0.513c-0.128,0.217-0.191,0.463-0.191,0.738c0,0.287,0.063,0.541,0.191,0.76
		c0.124,0.219,0.301,0.391,0.529,0.514C111.352,86.031,111.618,86.092,111.922,86.092"/>
	<path fill="#213163" d="M118.773,87.05c-0.493,0-0.929-0.105-1.31-0.315c-0.379-0.211-0.68-0.498-0.904-0.862
		c-0.223-0.363-0.333-0.772-0.333-1.229s0.11-0.866,0.333-1.23c0.224-0.363,0.522-0.65,0.902-0.861
		c0.375-0.21,0.807-0.316,1.294-0.316c0.462,0,0.888,0.078,1.278,0.233c0.389,0.155,0.698,0.371,0.927,0.645l-0.597,0.773
		c-0.119-0.128-0.261-0.245-0.426-0.351c-0.168-0.105-0.348-0.189-0.536-0.25c-0.191-0.061-0.379-0.092-0.567-0.092
		c-0.299,0-0.564,0.063-0.794,0.188c-0.232,0.126-0.412,0.299-0.542,0.518c-0.127,0.22-0.193,0.467-0.193,0.743
		c0,0.275,0.069,0.521,0.201,0.738c0.137,0.216,0.32,0.389,0.551,0.518c0.232,0.128,0.489,0.192,0.777,0.192
		c0.216,0,0.417-0.027,0.596-0.083c0.183-0.055,0.352-0.128,0.51-0.219c0.159-0.091,0.299-0.195,0.423-0.312l0.588,0.764
		c-0.252,0.229-0.568,0.421-0.945,0.576C119.628,86.972,119.217,87.05,118.773,87.05"/>
	<path fill="#213163" d="M123.208,88.982l1.115-2.274l-0.009,0.712l-2.528-5.086h1.254l1.31,2.819
		c0.099,0.188,0.188,0.372,0.263,0.554c0.075,0.181,0.135,0.354,0.177,0.517l-0.221,0.053c0.064-0.152,0.137-0.323,0.215-0.513
		c0.079-0.191,0.162-0.394,0.25-0.611l1.187-2.819h1.256l-2.224,4.646l-0.921,2.002H123.208z"/>
	<path fill="#213163" d="M132.307,86.963v-6.148h3.039c0.38,0,0.726,0.085,1.037,0.254c0.31,0.17,0.553,0.401,0.733,0.694
		c0.178,0.293,0.266,0.624,0.266,0.993c0,0.363-0.092,0.694-0.28,0.992c-0.187,0.299-0.437,0.536-0.755,0.712
		c-0.316,0.175-0.668,0.263-1.053,0.263h-1.872v2.24H132.307z M133.422,83.731h1.835c0.182,0,0.344-0.043,0.489-0.128
		c0.142-0.084,0.257-0.199,0.341-0.342c0.084-0.144,0.128-0.303,0.128-0.479c0-0.181-0.047-0.342-0.14-0.483
		c-0.094-0.141-0.222-0.252-0.387-0.334c-0.164-0.082-0.351-0.123-0.563-0.123h-1.703V83.731z M136.312,86.963l-1.774-2.775
		l1.193-0.221l1.951,3.005L136.312,86.963z"/>
	<path fill="#213163" d="M141.599,87.05c-0.539,0-1.016-0.102-1.433-0.307c-0.414-0.205-0.739-0.485-0.97-0.839
		c-0.231-0.354-0.346-0.759-0.346-1.216c0-0.375,0.067-0.711,0.201-1.011c0.136-0.298,0.321-0.556,0.559-0.772
		c0.236-0.217,0.515-0.384,0.838-0.501c0.322-0.117,0.672-0.176,1.045-0.176c0.339,0,0.658,0.057,0.953,0.172
		c0.296,0.114,0.553,0.272,0.773,0.474c0.221,0.202,0.389,0.442,0.51,0.72c0.119,0.278,0.177,0.584,0.172,0.918l-0.009,0.413h-4.243
		l-0.201-0.756h3.539l-0.141,0.132v-0.193c-0.023-0.182-0.099-0.341-0.229-0.479c-0.127-0.137-0.291-0.247-0.487-0.329
		c-0.197-0.082-0.408-0.123-0.637-0.123c-0.322,0-0.603,0.052-0.843,0.154c-0.24,0.102-0.426,0.259-0.558,0.469
		c-0.132,0.211-0.198,0.481-0.198,0.809c0,0.298,0.078,0.557,0.234,0.777c0.155,0.219,0.371,0.391,0.65,0.514
		c0.278,0.123,0.602,0.184,0.97,0.184c0.316,0,0.588-0.042,0.817-0.127c0.228-0.085,0.438-0.2,0.632-0.347l0.509,0.746
		c-0.17,0.135-0.368,0.255-0.596,0.36c-0.23,0.106-0.473,0.188-0.731,0.247C142.121,87.021,141.863,87.05,141.599,87.05"/>
	<path fill="#213163" d="M147.396,87.05c-0.47,0-0.893-0.069-1.269-0.207c-0.377-0.137-0.692-0.346-0.944-0.627l0.702-0.624
		c0.199,0.205,0.43,0.359,0.694,0.461c0.263,0.102,0.547,0.154,0.851,0.154c0.112,0,0.224-0.01,0.334-0.031
		c0.112-0.021,0.213-0.051,0.304-0.092c0.09-0.04,0.161-0.095,0.212-0.162c0.049-0.068,0.073-0.145,0.073-0.233
		c0-0.153-0.088-0.269-0.264-0.351c-0.105-0.036-0.234-0.075-0.386-0.119c-0.152-0.044-0.328-0.086-0.528-0.127
		c-0.339-0.07-0.633-0.152-0.882-0.247c-0.249-0.093-0.45-0.207-0.6-0.342c-0.125-0.111-0.218-0.241-0.281-0.391
		c-0.066-0.149-0.099-0.317-0.099-0.505c0-0.205,0.052-0.391,0.155-0.562c0.103-0.169,0.244-0.315,0.43-0.434
		c0.186-0.121,0.398-0.212,0.641-0.277c0.243-0.064,0.502-0.097,0.779-0.097c0.25,0,0.505,0.028,0.763,0.084
		c0.256,0.055,0.5,0.135,0.724,0.241c0.225,0.106,0.417,0.24,0.575,0.405l-0.579,0.676c-0.129-0.106-0.278-0.201-0.448-0.285
		c-0.169-0.086-0.346-0.155-0.527-0.207c-0.181-0.053-0.352-0.08-0.508-0.08c-0.119,0-0.234,0.011-0.353,0.031
		c-0.117,0.021-0.218,0.051-0.302,0.088c-0.085,0.039-0.154,0.088-0.203,0.149c-0.049,0.062-0.075,0.136-0.075,0.225
		c-0.006,0.064,0.011,0.124,0.049,0.179c0.038,0.056,0.087,0.108,0.145,0.154c0.092,0.059,0.223,0.111,0.391,0.158
		c0.166,0.048,0.371,0.097,0.61,0.15c0.323,0.064,0.604,0.142,0.847,0.232c0.243,0.092,0.444,0.198,0.603,0.321
		c0.121,0.099,0.217,0.218,0.281,0.355c0.064,0.138,0.096,0.294,0.096,0.471c0,0.292-0.089,0.549-0.267,0.768
		c-0.18,0.219-0.418,0.391-0.716,0.514C148.125,86.988,147.781,87.05,147.396,87.05"/>
	<path fill="#213163" d="M153.351,87.051c-0.521,0-0.983-0.104-1.388-0.312c-0.404-0.208-0.722-0.493-0.953-0.856
		c-0.231-0.363-0.346-0.776-0.346-1.239c0-0.462,0.115-0.875,0.346-1.239c0.231-0.362,0.549-0.647,0.953-0.855
		c0.405-0.208,0.867-0.312,1.388-0.312c0.521,0,0.983,0.104,1.388,0.312c0.404,0.208,0.721,0.493,0.953,0.855
		c0.23,0.364,0.346,0.777,0.346,1.239c0,0.463-0.116,0.876-0.346,1.239c-0.232,0.363-0.549,0.648-0.953,0.856
		C154.334,86.947,153.872,87.051,153.351,87.051 M153.351,86.092c0.299,0,0.569-0.064,0.812-0.192
		c0.244-0.129,0.434-0.303,0.572-0.519c0.137-0.216,0.205-0.463,0.205-0.738c0-0.281-0.068-0.531-0.205-0.751
		c-0.138-0.219-0.328-0.39-0.572-0.513c-0.243-0.123-0.513-0.185-0.812-0.185c-0.294,0-0.562,0.063-0.808,0.189
		c-0.247,0.126-0.439,0.297-0.58,0.513c-0.14,0.217-0.208,0.466-0.201,0.747c-0.007,0.275,0.061,0.522,0.201,0.738
		c0.141,0.216,0.333,0.39,0.58,0.519C152.789,86.029,153.057,86.092,153.351,86.092"/>
	<path fill="#213163" d="M157.831,86.963v-4.628h1.062l0.027,1.562l-0.221-0.21c0.076-0.269,0.206-0.514,0.392-0.733
		c0.185-0.22,0.396-0.394,0.637-0.523s0.488-0.194,0.746-0.194c0.146,0,0.29,0.016,0.43,0.045c0.141,0.029,0.252,0.067,0.333,0.114
		l-0.29,1.168c-0.093-0.059-0.205-0.104-0.337-0.136c-0.132-0.032-0.265-0.048-0.4-0.048c-0.187,0-0.36,0.033-0.517,0.1
		c-0.159,0.067-0.296,0.159-0.408,0.273c-0.116,0.114-0.204,0.243-0.269,0.386c-0.064,0.144-0.096,0.297-0.096,0.462v2.362H157.831z
		"/>
	<path fill="#213163" d="M162.449,82.334h3.495v1.001h-3.495V82.334z M163.575,81.051h1.079v5.911h-1.079V81.051z"/>
	<path fill="#213163" d="M171.013,80.815h1.143v6.148h-1.143V80.815z M171.486,83.379h4.516v1.071h-4.516V83.379z M175.449,80.815
		h1.142v6.148h-1.142V80.815z"/>
	<path fill="#213163" d="M181.061,87.051c-0.521,0-0.983-0.104-1.388-0.312c-0.403-0.208-0.721-0.493-0.953-0.856
		c-0.232-0.363-0.347-0.776-0.347-1.239c0-0.462,0.115-0.875,0.347-1.239c0.232-0.362,0.55-0.647,0.953-0.855
		c0.405-0.208,0.867-0.312,1.388-0.312c0.521,0,0.984,0.104,1.387,0.312c0.406,0.208,0.721,0.493,0.953,0.855
		c0.232,0.364,0.348,0.777,0.348,1.239c0,0.463-0.116,0.876-0.348,1.239c-0.232,0.363-0.547,0.648-0.953,0.856
		C182.045,86.947,181.582,87.051,181.061,87.051 M181.061,86.092c0.298,0,0.57-0.064,0.813-0.192
		c0.243-0.129,0.432-0.303,0.572-0.519c0.136-0.216,0.205-0.463,0.205-0.738c0-0.281-0.069-0.531-0.205-0.751
		c-0.14-0.219-0.329-0.39-0.572-0.513c-0.243-0.123-0.515-0.185-0.813-0.185c-0.293,0-0.562,0.063-0.809,0.189
		c-0.246,0.126-0.437,0.297-0.579,0.513c-0.14,0.217-0.209,0.466-0.201,0.747c-0.008,0.275,0.061,0.522,0.201,0.738
		c0.142,0.216,0.333,0.39,0.579,0.519C180.499,86.029,180.768,86.092,181.061,86.092"/>
	<path fill="#213163" d="M185.478,86.963v-4.628h1.063l0.018,1.07h-0.246c0.058-0.14,0.147-0.279,0.269-0.417
		c0.119-0.137,0.263-0.259,0.434-0.368c0.168-0.109,0.357-0.197,0.563-0.264c0.204-0.067,0.422-0.101,0.657-0.101
		c0.275,0,0.524,0.042,0.748,0.127c0.223,0.086,0.405,0.222,0.553,0.409c0.146,0.187,0.249,0.425,0.307,0.712l-0.238-0.053
		l0.071-0.141c0.077-0.129,0.178-0.255,0.307-0.378c0.129-0.122,0.278-0.235,0.448-0.338c0.171-0.102,0.355-0.184,0.553-0.245
		c0.2-0.062,0.401-0.093,0.607-0.093c0.415,0,0.753,0.08,1.014,0.237c0.261,0.158,0.45,0.384,0.572,0.677
		c0.118,0.293,0.18,0.638,0.18,1.036v2.758h-1.09V84.31c0-0.234-0.034-0.433-0.101-0.597s-0.173-0.288-0.316-0.374
		c-0.144-0.084-0.327-0.127-0.55-0.127c-0.187,0-0.364,0.031-0.53,0.093c-0.168,0.061-0.314,0.148-0.435,0.259
		c-0.125,0.111-0.218,0.238-0.287,0.382c-0.066,0.143-0.099,0.297-0.099,0.461v2.556h-1.09v-2.662c0-0.228-0.039-0.422-0.114-0.583
		c-0.076-0.162-0.192-0.286-0.342-0.374c-0.154-0.088-0.346-0.132-0.579-0.132c-0.183,0-0.349,0.033-0.501,0.097
		c-0.154,0.065-0.287,0.151-0.401,0.259s-0.202,0.227-0.262,0.356c-0.062,0.129-0.093,0.264-0.093,0.404v2.635H185.478z"/>
	<path fill="#213163" d="M197.766,87.05c-0.538,0-1.017-0.102-1.432-0.307c-0.416-0.205-0.74-0.485-0.97-0.839
		c-0.231-0.354-0.347-0.759-0.347-1.216c0-0.375,0.067-0.711,0.202-1.011c0.134-0.298,0.319-0.556,0.558-0.772
		c0.237-0.217,0.515-0.384,0.838-0.501c0.323-0.117,0.671-0.176,1.045-0.176c0.339,0,0.657,0.057,0.953,0.172
		c0.295,0.114,0.552,0.272,0.773,0.474c0.22,0.202,0.39,0.442,0.51,0.72c0.12,0.278,0.177,0.584,0.171,0.918l-0.009,0.413h-4.241
		l-0.203-0.756h3.54l-0.142,0.132v-0.193c-0.023-0.182-0.099-0.341-0.227-0.479c-0.129-0.137-0.291-0.247-0.489-0.329
		c-0.195-0.082-0.408-0.123-0.636-0.123c-0.323,0-0.603,0.052-0.844,0.154c-0.238,0.102-0.426,0.259-0.556,0.469
		c-0.134,0.211-0.198,0.481-0.198,0.809c0,0.298,0.076,0.557,0.233,0.777c0.155,0.219,0.37,0.391,0.649,0.514
		c0.278,0.123,0.602,0.184,0.97,0.184c0.318,0,0.589-0.042,0.817-0.127c0.229-0.085,0.44-0.2,0.633-0.347l0.509,0.746
		c-0.169,0.135-0.369,0.255-0.597,0.36c-0.228,0.106-0.471,0.188-0.729,0.247C198.289,87.021,198.03,87.05,197.766,87.05"/>
</g>
</svg>
